<?xml version="1.0" standalone="no"?>
<!DOCTYPE svg PUBLIC "-//W3C//DTD SVG 20010904//EN"
 "http://www.w3.org/TR/2001/REC-SVG-20010904/DTD/svg10.dtd">
<svg version="1.0" xmlns="http://www.w3.org/2000/svg"
 width="260.000000pt" height="260.000000pt" viewBox="0 0 260.000000 260.000000"
 preserveAspectRatio="xMidYMid meet">
<metadata>
Created by potrace 1.11, written by Peter Selinger 2001-2013
</metadata>
<g transform="translate(0.000000,260.000000) scale(0.100000,-0.100000)"
fill="#000000" stroke="none">
<path d="M1230 2221 c-94 -29 -167 -98 -195 -182 -10 -30 -19 -55 -20 -57 -2
-2 -21 8 -43 22 -105 66 -215 72 -327 17 -76 -38 -148 -114 -170 -181 -17 -51
-22 -140 -11 -188 6 -23 4 -33 -6 -36 -7 -2 -37 -9 -67 -16 -116 -27 -257
-133 -315 -235 -82 -147 -93 -314 -32 -466 97 -238 361 -367 614 -300 l74 19
36 -35 c106 -102 238 -172 375 -198 67 -13 224 -14 272 -2 237 59 372 155 490
345 36 59 40 62 68 56 155 -34 353 25 470 141 63 62 101 121 133 210 32 88 32
252 0 340 -83 229 -280 366 -517 360 l-66 -2 -28 45 c-71 112 -225 160 -347
109 l-35 -15 -17 57 c-9 30 -28 70 -42 88 -65 85 -200 132 -294 104z"/>
</g>
</svg>
